<?xml version="1.0" encoding="UTF-8" standalone="no"?>
<!-- Created with Inkscape (http://www.inkscape.org/) -->

<svg
  width="40"
  height="40"
  viewBox="0 0 166.66667 166.66667"
  version="1.1"
  id="svg1"
  xml:space="preserve"
  xmlns:xlink="http://www.w3.org/1999/xlink"
  xmlns="http://www.w3.org/2000/svg"
  xmlns:svg="http://www.w3.org/2000/svg"><defs
     id="defs1" /><g
     id="layer1"><path
       d="m 78.387431,164.33365 c -10.566205,-3.77435 -17.75418,-16.06714 -18.562055,-31.74462 -0.454081,-8.81183 1.547332,-18.14052 5.326879,-24.82887 1.216404,-2.15256 1.504228,-4.13957 0.599632,-4.13957 -0.124891,0 -1.856724,0.75295 -3.848524,1.67322 -10.077724,4.65619 -17.061027,13.28617 -19.682869,24.32409 -1.264237,5.32243 -2.33752,6.79729 -4.79177,6.58468 -1.160353,-0.10057 -2.012764,-0.56873 -2.687225,-1.47598 l -0.987798,-1.32873 1.048769,-4.49697 c 3.250862,-13.9392 9.973934,-22.90404 21.901257,-29.204075 2.837799,-1.49893 4.368824,-2.56188 3.92283,-2.72352 -0.402313,-0.1458 -2.710468,-0.6039 -5.129232,-1.018 -9.326208,-1.59665 -16.998373,-0.62681 -28.487988,3.60119 -2.08021,0.765495 -2.996056,0.875545 -4.095747,0.492195 -2.538412,-0.884895 -3.133446,-3.470505 -1.27171,-5.525985 1.564018,-1.72678 9.912996,-4.69971 16.464967,-5.8629 6.237018,-1.10728 16.075286,-0.96891 21.288959,0.2994 1.63187,0.39698 3.028295,0.66053 3.103164,0.58566 0.07487,-0.0749 -1.273909,-1.04802 -2.997284,-2.16255 -6.623222,-4.28333 -13.370224,-11.29035 -17.579578,-18.257064 -3.595243,-5.950332 -7.529163,-16.468396 -7.529163,-20.130618 0,-2.81725 3.652633,-4.346782 5.83728,-2.444348 0.594268,0.5175 1.522552,2.750436 2.304442,5.543215 3.140644,11.21782 9.291208,20.371604 18.350783,27.311165 2.769502,2.12142 5.199464,3.66111 5.199464,3.29453 0,-0.0871 -0.445668,-1.42639 -0.990373,-2.97617 -1.238301,-3.52319 -1.352767,-10.515917 -0.226257,-13.822042 0.737839,-2.16544 0.716808,-2.377091 -0.611539,-6.154253 -1.263392,-3.592461 -1.374937,-4.497656 -1.366826,-11.091901 0.0082,-6.642332 0.111878,-7.450593 1.384311,-10.789571 l 1.375478,-3.60936 -1.944722,-2.332884 C 58.118293,25.221229 54.900312,17.721367 53.691632,8.5857673 c -0.507218,-3.833712 -0.475215,-4.270588 0.399024,-5.447056 1.275568,-1.716541 3.777749,-1.975028 5.297536,-0.547263 0.833183,0.782735 1.199059,1.842329 1.436541,4.160287 0.17525,1.710539 0.651876,4.4292647 1.059169,6.0416147 0.899809,3.562067 4.634949,11.203029 6.637382,13.578064 l 1.461252,1.733155 1.641295,-1.575027 c 2.883056,-2.766653 6.605351,-4.313722 10.892586,-4.527206 4.53925,-0.226032 7.62775,0.65219 11.38656,3.237794 l 2.55467,1.757306 1.37013,-1.674776 c 4.257533,-5.204156 6.860313,-11.398975 8.667083,-20.6282737 0.57256,-2.924716 4.07106,-4.04412902 6.05133,-1.936237 1.26622,1.347837 1.32744,2.56259 0.35858,7.115923 -1.57324,7.3937587 -4.88266,14.4168047 -9.47561,20.1085207 l -2.69313,3.337409 0.99872,1.957661 c 1.80835,3.544651 2.48013,7.313712 2.46902,13.852595 -0.009,5.483098 -0.17324,6.69042 -1.40119,10.319333 l -1.39065,4.109736 0.88984,2.575289 c 1.32099,3.823084 1.20002,9.000779 -0.31579,13.516319 -0.68089,2.02831 -1.23797,3.79456 -1.23797,3.925 0,0.68912 1.23519,-0.01 3.81199,-2.15643 9.09315,-7.57574 14.21155,-15.771137 16.52329,-26.456477 1.57688,-7.288699 2.03217,-8.459475 3.48795,-8.969165 1.84593,-0.646283 3.84646,0.005 4.51373,1.469508 1.26574,2.778011 -1.56219,14.545638 -5.26024,21.888989 -3.3689,6.689745 -8.65415,13.102565 -14.90613,18.086225 -2.0391,1.62542 -2.24213,1.9165 -1.15073,1.64976 3.55043,-0.86774 10.77098,-1.2347 15.73073,-0.79947 9.72117,0.85307 20.95438,4.42213 22.21847,7.05934 0.75938,1.58423 0.43028,2.96767 -1.02948,4.32763 -1.38246,1.287965 -1.70085,1.255235 -6.97962,-0.71743 -6.72346,-2.51253 -11.49021,-3.37857 -18.88563,-3.43121 -4.5794,-0.0326 -7.58083,0.21385 -10.39893,0.85381 -3.69543,0.83919 -5.90687,1.79252 -4.15814,1.79252 1.37042,0 8.58066,3.799285 11.73905,6.185645 7.63161,5.76616 12.54099,15.10567 13.67885,26.02242 0.29762,2.8554 0.21257,3.39867 -0.71705,4.58049 -0.75496,0.95978 -1.50187,1.33868 -2.62812,1.33326 -2.62775,-0.0134 -3.46167,-1.09472 -4.00124,-5.19188 -0.6254,-4.74876 -1.41877,-7.45558 -3.36852,-11.4928 -2.96243,-6.13405 -8.65504,-11.17372 -15.86809,-14.04797 -1.29368,-0.5155 -2.35214,-0.78173 -2.35214,-0.5916 0,0.19012 0.88667,2.13666 1.97038,4.32565 3.04292,6.14644 4.07146,10.68708 4.34162,19.1668 0.17801,5.58752 0.0389,8.21408 -0.60294,11.38152 -2.37617,11.7269 -8.979783,21.20089 -16.822963,24.1354 -3.21807,1.20404 -8.40842,1.36703 -11.246676,0.35318 z m 9.684676,-7.6019 c 4.28972,-2.16291 8.84995,-9.10739 10.76947,-16.40014 1.410253,-5.35792 1.395093,-15.13531 -0.0319,-20.56162 -4.85767,-18.47228 -18.67179,-23.012885 -26.905129,-8.84353 -7.630579,13.132 -6.121034,32.86511 3.260651,42.62394 4.081323,4.24539 8.591658,5.35712 12.906878,3.18135 z m -5.633,-61.428015 c 4.27849,-0.24768 7.57852,0.58101 10.67107,2.67967 0.99643,0.6762 1.9527,1.08858 2.12503,0.9164 0.4807,-0.48027 0.65252,-8.32271 0.197,-8.99191 -0.29431,-0.43238 -1.25465,-0.1675 -3.59076,0.99037 -2.97709,1.47559 -3.53569,1.58062 -8.40672,1.58062 -4.906222,0 -5.407363,-0.0962 -8.394034,-1.61051 -1.746968,-0.88578 -3.296258,-1.49055 -3.442868,-1.34394 -0.401415,0.40142 -0.365977,7.7784 0.04214,8.77221 0.319778,0.77869 0.688786,0.68275 3.66422,-0.95276 2.801831,-1.54008 3.894725,-1.85258 7.134922,-2.04015 z m 5.00895,-10.57976 c 4.44444,-1.33159 8.3335,-6.67292 8.34324,-11.458793 l 0.005,-2.377339 -1.62344,1.23826 c -3.21752,2.454122 -5.74015,3.246292 -10.37482,3.257952 -4.575242,0.0114 -7.305802,-0.72261 -10.037559,-2.698623 -2.960445,-2.141436 -2.904745,-2.160541 -2.590074,0.888343 0.863927,8.37063 8.377303,13.51725 16.277813,11.1502 z m -0.9437,-16.850342 c 4.21721,-1.263508 8.3955,-6.600168 10.05801,-12.846451 2.52238,-9.476918 -1.55075,-21.358455 -8.47022,-24.708114 -4.52846,-2.192186 -9.248155,-1.018873 -12.986858,3.228516 -3.676325,4.176527 -5.149025,8.652142 -5.133977,15.602433 0.01887,8.711004 3.887339,15.879212 10.000765,18.5312 2.09643,0.909429 3.95625,0.964212 6.53228,0.192416 z"
       id="path1" />
      </g>
      </svg>