<?xml version="1.0" encoding="UTF-8" standalone="no"?>
<!-- Created with Inkscape (http://www.inkscape.org/) -->

<svg
  width="40"
  height="40"
  viewBox="0 0 166.66667 166.66667"
  version="1.1"
  id="svg1"
  xml:space="preserve"
  xmlns:xlink="http://www.w3.org/1999/xlink"
  xmlns="http://www.w3.org/2000/svg"
  xmlns:svg="http://www.w3.org/2000/svg"><defs
     id="defs1" /><g
     id="layer1"><path
       d="M 73.926848,164.31209 C 63.310117,161.85411 54.368683,156.27051 47.561546,147.8479 l -2.902149,-3.59089 -3.384928,-0.002 c -4.690499,-0.004 -7.895893,1.55039 -12.284015,5.95337 -3.28086,3.29198 -3.919324,3.6879 -5.375655,3.33353 -5.795526,-1.41025 -4.229585,-7.88209 3.332743,-13.77384 2.427947,-1.8916 8.9362,-4.47471 11.27419,-4.47471 1.015574,0 1.040644,0.11217 -1.556507,-6.95817 -2.416164,-6.57796 -3.637943,-12.84766 -4.068251,-20.87712 l -0.35966,-6.71114 -2.564906,-0.64585 c -5.404615,-1.360903 -8.77073,-0.62801 -13.929727,3.0329 -1.778168,1.2618 -3.794038,2.28565 -4.479712,2.2752 -2.7720995,-0.0422 -4.7938571,-3.23208 -3.8196989,-6.026554 0.9065216,-2.60044 6.0759029,-6.292991 11.1615449,-7.972799 3.16065,-1.043985 8.921676,-1.036458 13.307429,0.01735 1.524465,0.366314 1.616099,0.245862 2.292799,-3.013794 1.024632,-4.935614 3.098762,-10.727002 5.665834,-15.82013 l 2.249663,-4.463391 -2.285875,-1.975983 c -3.275521,-2.831465 -7.604471,-3.944701 -13.358686,-3.435341 -4.55458,0.403172 -4.663509,0.380779 -5.92078,-1.217587 -1.459165,-1.855027 -1.555554,-2.599956 -0.606061,-4.683866 1.011816,-2.220696 3.702909,-3.028216 10.076532,-3.023681 6.286909,0.0045 9.441202,1.025283 14.682303,4.751569 l 2.744929,1.951573 3.082959,-3.112632 c 1.695627,-1.71195 3.944617,-3.764758 4.997757,-4.561797 1.816799,-1.374995 1.886308,-1.571436 1.358162,-3.838341 -0.914494,-3.925186 -0.663476,-9.475893 0.615839,-13.61783 1.216689,-3.939182 5.297636,-10.215273 7.767005,-11.944887 1.211271,-0.848402 1.254567,-1.089972 0.568165,-3.169777 -0.40866,-1.23826 -2.02002,-3.528384 -3.5808,-5.089163 C 59.98282,12.882986 58.582286,12.068648 55.1472,11.025273 50.471044,9.6049349 48.915437,8.1037611 49.245032,5.329635 49.351345,4.4347558 50.139251,3.1862133 51.002477,2.5446956 52.415362,1.4946922 52.891761,1.449232 55.911928,2.0762164 c 7.603479,1.5784741 14.976303,7.2530151 17.495236,13.4653266 1.031568,2.544071 1.248295,2.72909 2.834199,2.419505 0.944475,-0.184371 3.636408,-0.33522 5.982077,-0.33522 h 4.264852 l 1.021885,-2.877177 C 89.680573,8.6377768 94.430182,4.2307463 100.86923,2.3531683 c 3.44189,-1.0036258 5.70922,-0.512198 6.76846,1.4670178 1.55541,2.9062938 -0.21631,5.987841 -4.11407,7.1556389 -3.15658,0.945734 -6.106319,3.566342 -7.504652,6.667276 l -1.111692,2.465295 2.052982,1.565045 c 8.505892,6.48429 12.518792,16.303044 10.795502,26.414429 l -0.55989,3.285121 2.18028,1.769185 c 1.19915,0.973053 3.18456,2.75207 4.41204,3.953374 1.7946,1.756354 2.36122,2.028202 2.89265,1.387842 1.36364,-1.643079 7.53832,-5.321507 11.29219,-6.727063 5.24261,-1.962986 14.70681,-2.212861 16.66865,-0.440088 1.46485,1.323667 1.67664,4.334554 0.42529,6.045892 -0.67742,0.926408 -1.92601,1.220312 -6.65259,1.565935 -4.78796,0.350111 -6.46531,0.751439 -9.4694,2.265665 -2.00793,1.012103 -4.49744,2.576263 -5.53227,3.475913 l -1.88152,1.635718 3.20993,6.570243 c 3.00675,6.154361 6.22248,16.139786 6.22589,19.33243 9.8e-4,1.190632 0.21344,1.348039 1.34541,0.998032 0.73916,-0.228545 3.41474,-0.5625 5.94575,-0.742124 5.4246,-0.384983 10.44491,1.070385 14.93674,4.3301 3.14891,2.285174 3.98519,4.454375 2.55736,6.633525 -1.80712,2.75802 -3.57725,2.86916 -7.82884,0.49153 -4.41787,-2.47062 -8.35885,-3.13382 -12.59018,-2.11874 l -2.93466,0.70401 -0.70226,7.58419 c -0.71354,7.70591 -2.61286,15.99553 -4.86343,21.22659 -0.68411,1.59012 -1.11594,3.09808 -0.9596,3.35102 0.15625,0.25297 1.49943,0.62649 2.98467,0.83006 5.18827,0.71113 11.5062,4.90541 15.34892,10.18966 2.14089,2.94402 2.1307,4.19461 -0.0519,6.37724 -2.58677,2.58675 -3.81421,2.26352 -8.02116,-2.11236 -4.19075,-4.35901 -6.62155,-5.60048 -11.93783,-6.09692 l -3.69694,-0.34521 -3.67297,4.44038 c -5.91346,7.14901 -13.7296,12.55021 -21.993881,15.19843 -5.925482,1.89877 -15.443595,2.42893 -20.905331,1.16444 z M 77.79777,130.96275 77.7863,105.72704 73.168765,102.61005 C 64.18329,96.544547 56.548293,94.079778 46.744969,94.079778 h -4.678276 l -0.4299,4.014345 c -0.599008,5.593457 0.100632,15.689067 1.481011,21.370697 4.352237,17.91378 16.871748,32.38685 30.97194,35.80485 1.881502,0.4561 3.488114,0.85166 3.570238,0.87902 0.08212,0.0274 0.144138,-11.30631 0.137837,-25.18594 z m 18.764922,21.98783 c 12.323498,-5.96078 21.994258,-19.77548 25.531778,-36.47223 0.78471,-3.70376 1.11512,-20.799868 0.41552,-21.499471 -0.21728,-0.217275 -2.95964,-0.389795 -6.09415,-0.383366 -9.37187,0.01921 -16.608254,2.337673 -25.006615,8.011807 l -4.617535,3.11972 -0.01147,25.01825 -0.01147,25.01824 2.775791,-0.38045 c 1.526684,-0.20926 4.68488,-1.30388 7.018211,-2.4325 z M 94.14514,90.689459 c 5.92824,-2.985423 14.22769,-4.971805 20.773,-4.971805 3.84495,0 5.29705,-0.204879 5.29177,-0.746623 -0.0143,-1.55181 -4.09556,-10.025017 -6.75184,-14.020644 -5.28029,-7.942694 -12.1016,-13.650955 -20.001762,-16.738026 -3.454226,-1.349773 -4.936701,-1.568512 -10.868681,-1.603676 -5.675297,-0.03363 -7.55481,0.196376 -10.816152,1.323691 -7.264367,2.510991 -13.157469,6.998594 -18.601529,14.165075 -3.171214,4.174545 -8.809197,14.58087 -8.809197,16.25962 0,0.329819 2.709865,0.744683 6.122273,0.937292 10.117489,0.571056 20.152947,4.218518 28.141917,10.228397 l 3.5035,2.635592 3.914659,-2.680084 c 2.15306,-1.474048 5.798983,-3.629009 8.102042,-4.788809 z M 74.726009,44.163253 c 2.410614,-0.469446 5.813948,-0.853539 7.562963,-0.853539 3.87543,0 11.251616,1.360979 14.31636,2.641509 1.240327,0.518243 2.35671,0.94226 2.480847,0.94226 0.743947,0 0.03361,-7.038892 -0.985132,-9.761684 C 96.65443,33.265367 91.833731,28.37984 88.242747,27.140925 84.712679,25.923024 78.627604,26.136226 75.420084,27.59019 69.368751,30.333248 65.2822,36.592504 65.27191,43.133894 l -0.0059,3.706598 2.538582,-0.911849 c 1.396177,-0.501518 4.510822,-1.295943 6.921436,-1.76539 z"
       id="path2" /></g></svg>