<?xml version="1.0" encoding="UTF-8" standalone="no"?>
<!-- Created with Inkscape (http://www.inkscape.org/) -->

<svg
   width="550"
   height="550"
   viewBox="0 0 550 550"
   version="1.1"
   id="svg1"
   xml:space="preserve"
   xmlns="http://www.w3.org/2000/svg"
   xmlns:svg="http://www.w3.org/2000/svg"><defs
     id="defs1" /><g
     id="layer1"><path
       style="fill:#000000"
       d="m 123.5,504.55667 c -13.23055,-2.4296 -27.521745,-9.39869 -38.844096,-18.9423 -6.210742,-5.23504 -15.664087,-17.74878 -19.526034,-25.84734 -6.118323,-12.8302 -7.336428,-19.31765 -7.867289,-41.90001 L 56.777545,397.23403 44.638773,396.80052 C 34.034846,396.42182 31.788894,396.02605 26.876012,393.67049 16.056761,388.48303 7.6209006,378.82117 4.3787407,367.90363 1.9568418,359.74821 2.8202512,346.93161 6.266005,339.88874 14.17475,323.72385 27.197412,316 46.543208,316 h 10.230107 l 0.487151,-20.75 c 0.518935,-22.10388 1.553164,-27.98803 7.139561,-40.61986 8.129334,-18.38187 25.781301,-34.8851 45.112233,-42.17648 C 123.40569,207.21323 126.51545,207 189.04753,207 h 57.87159 l 0.29044,-8.25 c 0.15974,-4.5375 0.14499,-18.6 -0.0328,-31.25 l -0.32322,-23 -5.4266,-3.9074 C 229.07934,131.70178 219.98205,113.36092 220.05249,97.5 220.10894,84.791236 226.87996,69.072723 236.37625,59.605381 247.05173,48.96245 259.36725,44 275.10476,44 c 23.18036,0 43.4068,14.553031 51.05422,36.733774 3.43513,9.963302 3.25828,26.043246 -0.38921,35.389616 -4.41755,11.31958 -10.14112,19.0426 -18.85082,25.43611 L 302,145.17034 V 176.08517 207 h 57.91203 c 63.48918,0 65.81778,0.17144 80.79847,5.9486 20.20473,7.79177 36.67409,23.97164 45.12453,44.33134 C 490.67381,268.93806 492,277.66642 492,297.85501 v 17.93934 l 12.27314,0.35282 c 11.45406,0.32928 12.71135,0.56863 18.83946,3.58646 15.96178,7.86048 25.63954,25.85657 22.91321,42.60779 -2.15084,13.21524 -11.01802,25.14732 -22.95215,30.88547 -6.02037,2.89469 -7.5965,3.19639 -18.72598,3.58439 l -12.15232,0.42366 -0.46919,21.13253 c -0.53255,23.98654 -1.28211,27.83236 -8.21173,42.13253 -7.90805,16.31929 -20.26399,28.63496 -37.01444,36.89382 -17.77338,8.76321 -3.11995,8.04703 -169,8.25977 -116.1204,0.14892 -148.47046,-0.0815 -154,-1.09692 z M 421.84847,477.56828 C 440.3199,473.60699 455.39206,460.29247 462.11211,442 L 464.5,435.5 v -79 -79 l -2.38789,-6.5 c -6.88358,-18.73762 -23.28798,-32.84917 -41.76449,-35.92707 -4.96224,-0.82663 -46.22032,-1.06255 -149.84762,-0.85682 -142.4648,0.28283 -143.02135,0.29175 -148.70558,2.38491 -8.73962,3.21827 -16.42412,8.28779 -22.645092,14.93914 -7.021908,7.50769 -10.622925,14.0817 -13.17118,24.04528 -1.882529,7.36062 -1.977309,11.24332 -1.960784,80.32452 0.01912,79.92996 0.06617,80.64297 6.143294,93.09004 6.484638,13.28174 21.932882,25.32855 36.595592,28.53788 8.7848,1.9228 286.13479,1.95137 295.09222,0.0304 z M 169.38268,396.05107 c -12.85356,-3.06855 -25.07993,-14.93387 -29.00394,-28.14744 -2.4219,-8.15542 -1.55849,-20.97202 1.88726,-28.01489 9.44691,-19.30878 30.3174,-28.42972 49.93262,-21.82183 11.37635,3.83242 18.84437,10.58661 24.19874,21.88572 2.82685,5.96539 3.10264,7.43625 3.10264,16.54737 0,9.11112 -0.27579,10.58198 -3.10264,16.54737 -5.38782,11.3697 -14.03292,18.98511 -25.37616,22.35369 -5.54152,1.64566 -16.135,1.96388 -21.63852,0.65001 z M 358.5,395.66184 c -7.20731,-2.40064 -12.7588,-5.79423 -17.58615,-10.75028 -19.60809,-20.13089 -13.60904,-53.16051 11.8454,-65.21843 C 359.00811,316.73301 360.26621,316.5 370,316.5 c 9.32659,0 11.14607,0.30274 16.28122,2.70897 8.08129,3.78674 16.82193,12.4012 20.18378,19.8924 7.22599,16.10164 4.4537,32.70285 -7.58723,45.43435 -7.69134,8.13246 -15.66133,11.66374 -27.33548,12.11158 -5.76218,0.22105 -10.4933,-0.13643 -13.04229,-0.98546 z"
       id="path1" /></g></svg>
